<svg xmlns:xlink="http://www.w3.org/1999/xlink" xmlns="http://www.w3.org/2000/svg" viewBox="0 0 512 512" shape-rendering="crispEdges" id="svg-element">
                    
                    <!-- Orejas (Marr贸n Oscuro) -->
                    <rect x="64" y="64" width="96" height="96" fill="#8B4513"/>
                    <rect x="352" y="64" width="96" height="96" fill="#8B4513"/>

                    <!-- Cuerpo Base (Marr贸n Claro) -->
                    <!-- Bloque central principal -->
                    <rect x="96" y="128" width="320" height="288" fill="#CD853F"/>
                    <!-- Bordes laterales para redondear un poco -->
                    <rect x="64" y="160" width="32" height="224" fill="#CD853F"/>
                    <rect x="416" y="160" width="32" height="224" fill="#CD853F"/>
                    
                    <!-- Mancha Blanca en la cara (Estilo pixel) -->
                    <rect x="256" y="128" width="128" height="288" fill="#FFFFFF"/>
                    <rect x="384" y="160" width="32" height="224" fill="#FFFFFF"/>

                    <!-- Ojos (Negro) -->
                    <rect x="128" y="224" width="64" height="64" fill="#000000"/>
                    <rect x="320" y="224" width="64" height="64" fill="#000000"/>
                    
                    <!-- Brillo Ojos (Blanco) -->
                    <rect x="144" y="224" width="24" height="24" fill="#FFFFFF"/>
                    <rect x="336" y="224" width="24" height="24" fill="#FFFFFF"/>

                    <!-- Nariz (Rosa) -->
                    <rect x="224" y="320" width="64" height="32" fill="#FFAB91"/>
                    
                    <!-- Boca (Marr贸n muy oscuro) -->
                    <rect x="248" y="352" width="16" height="32" fill="#3E2723"/>

                    <!-- Patitas (Rosa) -->
                    <rect x="128" y="416" width="64" height="32" fill="#FFAB91"/>
                    <rect x="320" y="416" width="64" height="32" fill="#FFAB91"/>

                    <!-- Bigotes (Marr贸n oscuro, simples pixeles) -->
                    <rect x="64" y="320" width="32" height="16" fill="#3E2723"/>
                    <rect x="96" y="336" width="32" height="16" fill="#3E2723"/>
                    
                    <rect x="416" y="320" width="32" height="16" fill="#3E2723"/>
                    <rect x="384" y="336" width="32" height="16" fill="#3E2723"/>

                </svg>